<svg xmlns="http://www.w3.org/2000/svg" version="1.1" xmlns:xlink="http://www.w3.org/1999/xlink" xmlns:svgjs="http://svgjs.dev/svgjs" width="1500" height="1500" viewBox="0 0 1500 1500"><rect width="1500" height="1500" fill="#ffffff"></rect><g transform="matrix(0.6666666666666666,0,0,0.6666666666666666,249.39393939393938,438.58569500674764)"><svg viewBox="0 0 396 247" data-background-color="#000000" preserveAspectRatio="xMidYMid meet" height="935" width="1500" xmlns="http://www.w3.org/2000/svg" xmlns:xlink="http://www.w3.org/1999/xlink"><g id="tight-bounds" transform="matrix(1,0,0,1,0.2400000000000091,-0.09999999999999432)"><svg viewBox="0 0 395.52 247.2" height="247.2" width="395.52"><rect width="395.52" height="247.2" fill="#000000" mask="url(#1ffbac0c-405c-4591-aab5-2c1b7f672d3b)" data-fill-palette-color="tertiary"></rect><g><svg></svg></g><g><svg viewBox="0 0 395.52 247.2" height="247.2" width="395.52"><g transform="matrix(1,0,0,1,75.54432000000001,101.25627445398773)"><svg viewBox="0 0 244.43135999999996 44.68745109202453" height="44.68745109202453" width="244.43135999999996"><g><svg viewBox="0 0 244.43135999999996 44.68745109202453" height="44.68745109202453" width="244.43135999999996"><g><svg viewBox="0 0 244.43135999999996 44.68745109202453" height="44.68745109202453" width="244.43135999999996"><g><svg viewBox="0 0 244.43135999999996 44.68745109202453" height="44.68745109202453" width="244.43135999999996"><g id="textblocktransform"><svg viewBox="0 0 244.43135999999996 44.68745109202453" height="44.68745109202453" width="244.43135999999996" id="textblock"><g><svg viewBox="0 0 244.43135999999996 44.68745109202453" height="44.68745109202453" width="244.43135999999996"><g transform="matrix(1,0,0,1,0,0)"><svg width="244.43135999999996" viewBox="4.64 -39.84 278.54 50.92" height="44.68745109202453" data-palette-color="url(#707232fc-344b-4774-9ec2-f164bb535308)"></svg></g></svg></g></svg></g></svg></g><g></g></svg></g></svg></g></svg></g><g><path d="M80.054 90.707A122.216 122.216 0 0 1 315.466 90.707L311.436 90.707A118.186 118.186 0 0 0 84.084 90.707L80.054 90.707M80.054 156.493A122.216 122.216 0 0 0 315.466 156.493L311.436 156.493A118.186 118.186 0 0 1 84.084 156.493L80.054 156.493" fill="#000000" stroke="transparent" data-fill-palette-color="tertiary"></path></g></svg></g><defs></defs><mask id="9aca5283-cc8d-44bb-9619-7f8b84180d15"><g id="SvgjsG3543"><svg viewBox="0 0 395.52 247.2" height="247.2" width="395.52"><g><svg></svg></g><g><svg viewBox="0 0 395.52 247.2" height="247.2" width="395.52"><g transform="matrix(1,0,0,1,75.54432000000001,101.25627445398773)"><svg viewBox="0 0 244.43135999999996 44.68745109202453" height="44.68745109202453" width="244.43135999999996"><g><svg viewBox="0 0 244.43135999999996 44.68745109202453" height="44.68745109202453" width="244.43135999999996"><g><svg viewBox="0 0 244.43135999999996 44.68745109202453" height="44.68745109202453" width="244.43135999999996"><g><svg viewBox="0 0 244.43135999999996 44.68745109202453" height="44.68745109202453" width="244.43135999999996"><g id="SvgjsG3542"><svg viewBox="0 0 244.43135999999996 44.68745109202453" height="44.68745109202453" width="244.43135999999996" id="SvgjsSvg3541"><g><svg viewBox="0 0 244.43135999999996 44.68745109202453" height="44.68745109202453" width="244.43135999999996"><g transform="matrix(1,0,0,1,0,0)"><svg width="244.43135999999996" viewBox="4.64 -39.84 278.54 50.92" height="44.68745109202453" data-palette-color="url(#707232fc-344b-4774-9ec2-f164bb535308)"><path d="M4.64 0L4.64-35.99 10.6-35.99 10.6 0 4.64 0ZM25.63-20.21L25.63-16.21 12.6-16.21 12.6-20.21 25.63-20.21ZM12.6 0L12.6-4.44 27.15-4.44 27.15 0 12.6 0ZM12.6-35.99L27.15-35.99 27.15-31.54 12.6-31.54 12.6-35.99ZM55.81-23.58L53.17-20.41Q52.44-21.29 51.14-22.05 49.85-22.8 47.7-22.95L47.7-22.95 47.7-27.64Q50.39-27.49 52.32-26.49 54.25-25.49 55.81-23.58L55.81-23.58ZM47.7 0.2L47.7-4.64Q49.46-4.83 50.71-5.49 51.95-6.15 53.07-7.03L53.07-7.03 55.27-3.86Q53.76-1.95 52-0.95 50.24 0.05 47.7 0.2L47.7 0.2ZM34.08-13.77L34.08-13.77Q34.08-16.55 34.89-18.99 35.69-21.44 37.25-23.29 38.82-25.15 40.94-26.29 43.06-27.44 45.7-27.64L45.7-27.64 45.7-22.9Q43.26-22.36 41.79-19.9 40.33-17.43 40.33-13.92L40.33-13.92Q40.33-12.11 40.7-10.52 41.06-8.94 41.75-7.71 42.43-6.49 43.43-5.66 44.43-4.83 45.7-4.64L45.7-4.64 45.7 0.2Q43.02 0.05 40.87-1.1 38.72-2.25 37.2-4.13 35.69-6.01 34.89-8.5 34.08-10.99 34.08-13.77ZM63.42 0L63.42-37.94 69.33-37.94 69.33 0 63.42 0ZM83.93-24.51L83.93-24.51Q84.76-23.68 85.22-22.58 85.69-21.48 85.91-20.29 86.13-19.09 86.18-17.87 86.23-16.65 86.23-15.48L86.23-15.48 86.23-0.98 86.23 0 80.27 0 80.27-14.99Q80.27-16.65 80.12-18.16 79.98-19.68 79.44-20.85 78.9-22.02 77.97-22.68 77.05-23.34 75.39-23.34L75.39-23.34Q74.7-23.34 73.55-23.12 72.41-22.9 71.33-22.41L71.33-22.41 71.33-26.17Q72.65-26.86 74.19-27.34 75.73-27.83 77.19-27.83L77.19-27.83Q79.39-27.83 80.9-26.93 82.42-26.03 83.93-24.51ZM106.1-23.1L106.1-27.69Q108.78-27.54 110.98-26.39 113.18-25.24 114.67-23.36 116.15-21.48 116.98-18.99 117.81-16.5 117.81-13.67L117.81-13.67Q117.81-10.84 116.96-8.37 116.11-5.91 114.59-4.08 113.08-2.25 110.88-1.12 108.68 0 106.1 0.2L106.1 0.2 106.1-4.49Q108.54-5.03 110.08-7.57 111.61-10.11 111.61-13.67L111.61-13.67Q111.61-15.48 111.25-17.07 110.88-18.65 110.15-19.92 109.42-21.19 108.39-22.02 107.37-22.85 106.1-23.1L106.1-23.1ZM92.47-13.77L92.47-13.77Q92.47-16.6 93.3-19.04 94.13-21.48 95.67-23.32 97.21-25.15 99.36-26.27 101.51-27.39 104.09-27.64L104.09-27.64 104.09-23.1Q101.65-22.56 100.19-20.02 98.72-17.48 98.72-13.92L98.72-13.92Q98.72-12.11 99.09-10.5 99.46-8.89 100.14-7.62 100.82-6.35 101.82-5.52 102.82-4.69 104.09-4.49L104.09-4.49 104.09 0.2Q101.41 0 99.26-1.15 97.11-2.29 95.6-4.15 94.08-6.01 93.28-8.5 92.47-10.99 92.47-13.77ZM142.96-18.95L142.96-18.95Q144.08-18.8 145.35-18.21 146.62-17.63 147.72-16.55 148.82-15.48 149.55-13.94 150.28-12.4 150.28-10.4L150.28-10.4Q150.28-7.96 149.55-6.2 148.82-4.44 147.72-3.3 146.62-2.15 145.33-1.49 144.03-0.83 142.84-0.49 141.64-0.15 140.71-0.07 139.78 0 139.49 0L139.49 0 133.83 0 133.83-4.3 139.15-4.3Q141.74-4.3 143.2-5.96 144.67-7.62 144.67-10.4L144.67-10.4Q144.67-13.04 143.15-14.84 141.64-16.65 138.71-16.65L138.71-16.65 133.83-16.65 133.83-20.61 136.17-20.61Q137.25-20.61 138.37-20.65 139.49-20.7 140.47-21.19 141.45-21.68 142.06-22.85 142.67-24.02 142.67-26.22L142.67-26.22Q142.67-27.1 142.42-28.05 142.18-29 141.45-29.79 140.71-30.57 139.35-31.05 137.98-31.54 135.73-31.54L135.73-31.54 133.83-31.54 133.83-35.99 136.32-35.99Q138.61-35.99 140.76-35.45 142.91-34.91 144.57-33.74 146.23-32.57 147.21-30.69 148.18-28.81 148.18-26.22L148.18-26.22Q148.18-24.71 147.7-23.46 147.21-22.22 146.47-21.29 145.74-20.36 144.79-19.75 143.84-19.14 142.96-18.95ZM125.97 0L125.97-35.99 131.83-35.99 131.83 0 125.97 0ZM158.24-27.54L163.51-27.54 164.15-24.71 164.15-9.77 164.15-9.67 164.15 0 158.24 0 158.24-27.54ZM166.15-21.34L166.15-26.32Q167.37-27 169.08-27.37 170.79-27.73 173.72-27.73L173.72-27.73 173.72-21.58Q172.35-21.97 170.4-22.02L170.4-22.02Q169.32-22.02 168.22-21.85 167.13-21.68 166.15-21.34L166.15-21.34ZM185.92-27.54L185.92 0 179.97 0 179.97-27.54 185.92-27.54ZM186.46-36.33L186.46-36.33Q186.46-34.86 185.43-33.86 184.41-32.86 182.94-32.86L182.94-32.86Q181.48-32.86 180.48-33.89 179.48-34.91 179.48-36.33L179.48-36.33Q179.48-37.79 180.5-38.82 181.53-39.84 182.94-39.84L182.94-39.84Q184.41-39.84 185.43-38.82 186.46-37.79 186.46-36.33ZM211.21-37.94L217.17-37.94 217.17 0 211.55 0 211.21-3.27 211.21-37.94ZM192.46-14.16L192.46-14.16Q192.46-17.97 193.51-20.56 194.56-23.14 196.22-24.76 197.88-26.37 199.91-27.08 201.94-27.78 203.89-27.78L203.89-27.78Q205.4-27.78 206.77-27.44 208.14-27.1 209.21-26.46L209.21-26.46 209.21-21.29Q208.38-22.17 207.36-22.71 206.33-23.24 205.06-23.24L205.06-23.24Q203.55-23.24 202.38-22.49 201.2-21.73 200.4-20.41 199.59-19.09 199.15-17.38 198.71-15.67 198.71-13.72L198.71-13.72Q198.71-11.77 199.2-10.08 199.69-8.4 200.52-7.13 201.35-5.86 202.55-5.13 203.74-4.39 205.16-4.39L205.16-4.39Q207.55-4.39 209.21-6.3L209.21-6.3 209.21-1.22Q208.04-0.59 206.5-0.17 204.96 0.24 203.25 0.24L203.25 0.24Q201.3 0.24 199.42-0.46 197.54-1.17 196.08-2.78L196.08-2.78Q194.22-4.88 193.34-7.98 192.46-11.08 192.46-14.16ZM235.53 0.24L235.53 0.24Q232.79 0.24 230.74-0.95 228.69-2.15 227.32-4.15 225.96-6.15 225.32-8.74 224.69-11.33 224.69-14.16L224.69-14.16Q224.69-17.97 225.74-20.56 226.79-23.14 228.42-24.78 230.06-26.42 232.08-27.1 234.11-27.78 236.06-27.78L236.06-27.78Q237.58-27.78 238.94-27.44 240.31-27.1 241.44-26.46L241.44-26.46 241.44-21.29Q240.65-22.17 239.6-22.71 238.55-23.24 237.33-23.24L237.33-23.24Q235.87-23.24 234.67-22.49 233.48-21.73 232.65-20.46 231.82-19.19 231.38-17.48 230.94-15.77 230.94-13.87L230.94-13.87Q230.94-11.91 231.4-10.18 231.86-8.45 232.72-7.18 233.57-5.91 234.77-5.15 235.97-4.39 237.43-4.39L237.43-4.39Q238.65-4.39 239.63-4.91 240.61-5.42 241.44-6.25L241.44-6.25 241.44-1.17Q240.26-0.59 238.75-0.17 237.24 0.24 235.53 0.24ZM244.07-27.54L249.35-27.54 249.3 0Q249.1 2.98 248.1 5.08 247.1 7.18 245.54 8.54 243.97 9.91 241.92 10.5 239.87 11.08 237.53 11.08L237.53 11.08Q234.79 11.08 232.13 10.13 229.47 9.18 227.71 6.93L227.71 6.93 231.13 3.56Q231.62 4.39 232.38 4.93 233.13 5.47 233.94 5.76 234.75 6.05 235.55 6.18 236.36 6.3 236.99 6.3L236.99 6.3Q240.02 6.3 241.73 4.54 243.44 2.78 243.44-1.46L243.44-1.46 243.44-24.76 244.07-27.54ZM271.66-23.19L271.66-27.78Q274.29-27.54 276.42-26.37 278.54-25.2 280.06-23.34 281.57-21.48 282.37-19.09 283.18-16.7 283.18-14.11L283.18-14.11Q283.18-12.94 283.03-11.77L283.03-11.77 266.29-11.77 266.29-16.06 277.57-16.06Q277.57-17.33 277.15-18.51 276.74-19.68 275.93-20.68 275.12-21.68 274.05-22.36 272.98-23.05 271.66-23.19L271.66-23.19ZM271.46-4.59L271.46-4.59Q272-4.59 272.8-4.71 273.61-4.83 274.51-5.15 275.42-5.47 276.32-5.96 277.22-6.45 277.91-7.13L277.91-7.13 280.06-3.86Q278.44-1.86 276.3-0.83 274.15 0.2 270.83 0.2L270.83 0.2Q268.14 0.2 265.8-0.9 263.45-2 261.79-3.91 260.13-5.81 259.16-8.35 258.18-10.89 258.18-13.82L258.18-13.82Q258.18-16.6 259.08-19.09 259.99-21.58 261.55-23.46 263.11-25.34 265.19-26.51 267.26-27.69 269.66-27.83L269.66-27.83 269.66-23.14Q267.85-22.8 266.68-21.68 265.5-20.56 264.85-19.12 264.19-17.68 263.92-16.16 263.65-14.65 263.65-13.57L263.65-13.57Q263.65-11.67 264.11-10.03 264.58-8.4 265.55-7.2 266.53-6.01 267.97-5.3 269.41-4.59 271.46-4.59Z" opacity="1" transform="matrix(1,0,0,1,0,0)" fill="white" class="wordmark-text-0" id="SvgjsPath3540"></path></svg></g></svg></g></svg></g></svg></g><g></g></svg></g></svg></g></svg></g><g><path d="M80.054 90.707A122.216 122.216 0 0 1 315.466 90.707L311.436 90.707A118.186 118.186 0 0 0 84.084 90.707L80.054 90.707M80.054 156.493A122.216 122.216 0 0 0 315.466 156.493L311.436 156.493A118.186 118.186 0 0 1 84.084 156.493L80.054 156.493" fill="black" stroke="transparent"></path></g></svg></g><defs><mask></mask></defs></svg><rect width="395.52" height="247.2" fill="black" stroke="none" visibility="hidden"></rect></g></mask><linearGradient x1="0" x2="1" y1="0.548" y2="0.55" id="707232fc-344b-4774-9ec2-f164bb535308"><stop stop-color="#ff6cab" offset="0"></stop><stop stop-color="#7366ff" offset="1"></stop></linearGradient><rect width="395.52" height="247.2" fill="#000000" mask="url(#9aca5283-cc8d-44bb-9619-7f8b84180d15)" data-fill-palette-color="primary"></rect><mask id="1ffbac0c-405c-4591-aab5-2c1b7f672d3b"><g id="SvgjsG3566"><svg viewBox="0 0 395.52 247.2" height="247.2" width="395.52"><g><svg></svg></g><g><svg viewBox="0 0 395.52 247.2" height="247.2" width="395.52"><g transform="matrix(1,0,0,1,75.54432000000001,101.25627445398773)"><svg viewBox="0 0 244.43135999999996 44.68745109202453" height="44.68745109202453" width="244.43135999999996"><g><svg viewBox="0 0 244.43135999999996 44.68745109202453" height="44.68745109202453" width="244.43135999999996"><g><svg viewBox="0 0 244.43135999999996 44.68745109202453" height="44.68745109202453" width="244.43135999999996"><g><svg viewBox="0 0 244.43135999999996 44.68745109202453" height="44.68745109202453" width="244.43135999999996"><g id="SvgjsG3565"><svg viewBox="0 0 244.43135999999996 44.68745109202453" height="44.68745109202453" width="244.43135999999996" id="SvgjsSvg3564"><g><svg viewBox="0 0 244.43135999999996 44.68745109202453" height="44.68745109202453" width="244.43135999999996"><g transform="matrix(1,0,0,1,0,0)"><svg width="244.43135999999996" viewBox="4.64 -39.84 278.54 50.92" height="44.68745109202453" data-palette-color="url(#707232fc-344b-4774-9ec2-f164bb535308)"></svg></g></svg></g></svg></g></svg></g><g></g></svg></g></svg></g></svg></g><g><path d="M80.054 90.707A122.216 122.216 0 0 1 315.466 90.707L311.436 90.707A118.186 118.186 0 0 0 84.084 90.707L80.054 90.707M80.054 156.493A122.216 122.216 0 0 0 315.466 156.493L311.436 156.493A118.186 118.186 0 0 1 84.084 156.493L80.054 156.493" fill="white" stroke="transparent"></path></g></svg></g><defs><mask></mask></defs><mask><g id="SvgjsG3563"><svg viewBox="0 0 395.52 247.2" height="247.2" width="395.52"><g><svg></svg></g><g><svg viewBox="0 0 395.52 247.2" height="247.2" width="395.52"><g transform="matrix(1,0,0,1,75.54432000000001,101.25627445398773)"><svg viewBox="0 0 244.43135999999996 44.68745109202453" height="44.68745109202453" width="244.43135999999996"><g><svg viewBox="0 0 244.43135999999996 44.68745109202453" height="44.68745109202453" width="244.43135999999996"><g><svg viewBox="0 0 244.43135999999996 44.68745109202453" height="44.68745109202453" width="244.43135999999996"><g><svg viewBox="0 0 244.43135999999996 44.68745109202453" height="44.68745109202453" width="244.43135999999996"><g id="SvgjsG3562"><svg viewBox="0 0 244.43135999999996 44.68745109202453" height="44.68745109202453" width="244.43135999999996" id="SvgjsSvg3561"><g><svg viewBox="0 0 244.43135999999996 44.68745109202453" height="44.68745109202453" width="244.43135999999996"><g transform="matrix(1,0,0,1,0,0)"><svg width="244.43135999999996" viewBox="4.64 -39.84 278.54 50.92" height="44.68745109202453" data-palette-color="url(#707232fc-344b-4774-9ec2-f164bb535308)"><path d="M4.64 0L4.64-35.99 10.6-35.99 10.6 0 4.64 0ZM25.63-20.21L25.63-16.21 12.6-16.21 12.6-20.21 25.63-20.21ZM12.6 0L12.6-4.44 27.15-4.44 27.15 0 12.6 0ZM12.6-35.99L27.15-35.99 27.15-31.54 12.6-31.54 12.6-35.99ZM55.81-23.58L53.17-20.41Q52.44-21.29 51.14-22.05 49.85-22.8 47.7-22.95L47.7-22.95 47.7-27.64Q50.39-27.49 52.32-26.49 54.25-25.49 55.81-23.58L55.81-23.58ZM47.7 0.2L47.7-4.64Q49.46-4.83 50.71-5.49 51.95-6.15 53.07-7.03L53.07-7.03 55.27-3.86Q53.76-1.95 52-0.95 50.24 0.05 47.7 0.2L47.7 0.2ZM34.08-13.77L34.08-13.77Q34.08-16.55 34.89-18.99 35.69-21.44 37.25-23.29 38.82-25.15 40.94-26.29 43.06-27.44 45.7-27.64L45.7-27.64 45.7-22.9Q43.26-22.36 41.79-19.9 40.33-17.43 40.33-13.92L40.33-13.92Q40.33-12.11 40.7-10.52 41.06-8.94 41.75-7.71 42.43-6.49 43.43-5.66 44.43-4.83 45.7-4.64L45.7-4.64 45.7 0.2Q43.02 0.05 40.87-1.1 38.72-2.25 37.2-4.13 35.69-6.01 34.89-8.5 34.08-10.99 34.08-13.77ZM63.42 0L63.42-37.94 69.33-37.94 69.33 0 63.42 0ZM83.93-24.51L83.93-24.51Q84.76-23.68 85.22-22.58 85.69-21.48 85.91-20.29 86.13-19.09 86.18-17.87 86.23-16.65 86.23-15.48L86.23-15.48 86.23-0.98 86.23 0 80.27 0 80.27-14.99Q80.27-16.65 80.12-18.16 79.98-19.68 79.44-20.85 78.9-22.02 77.97-22.68 77.05-23.34 75.39-23.34L75.39-23.34Q74.7-23.34 73.55-23.12 72.41-22.9 71.33-22.41L71.33-22.41 71.33-26.17Q72.65-26.86 74.19-27.34 75.73-27.83 77.19-27.83L77.19-27.83Q79.39-27.83 80.9-26.93 82.42-26.03 83.93-24.51ZM106.1-23.1L106.1-27.69Q108.78-27.54 110.98-26.39 113.18-25.24 114.67-23.36 116.15-21.48 116.98-18.99 117.81-16.5 117.81-13.67L117.81-13.67Q117.81-10.84 116.96-8.37 116.11-5.91 114.59-4.08 113.08-2.25 110.88-1.12 108.68 0 106.1 0.2L106.1 0.2 106.1-4.49Q108.54-5.03 110.08-7.57 111.61-10.11 111.61-13.67L111.61-13.67Q111.61-15.48 111.25-17.07 110.88-18.65 110.15-19.92 109.42-21.19 108.39-22.02 107.37-22.85 106.1-23.1L106.1-23.1ZM92.47-13.77L92.47-13.77Q92.47-16.6 93.3-19.04 94.13-21.48 95.67-23.32 97.21-25.15 99.36-26.27 101.51-27.39 104.09-27.64L104.09-27.64 104.09-23.1Q101.65-22.56 100.19-20.02 98.72-17.48 98.72-13.92L98.72-13.92Q98.72-12.11 99.09-10.5 99.46-8.89 100.14-7.62 100.82-6.35 101.82-5.52 102.82-4.69 104.09-4.49L104.09-4.49 104.09 0.2Q101.41 0 99.26-1.15 97.11-2.29 95.6-4.15 94.08-6.01 93.28-8.5 92.47-10.99 92.47-13.77ZM142.96-18.95L142.96-18.95Q144.08-18.8 145.35-18.21 146.62-17.63 147.72-16.55 148.82-15.48 149.55-13.94 150.28-12.4 150.28-10.4L150.28-10.4Q150.28-7.96 149.55-6.2 148.82-4.44 147.72-3.3 146.62-2.15 145.33-1.49 144.03-0.83 142.84-0.49 141.64-0.15 140.71-0.07 139.78 0 139.49 0L139.49 0 133.83 0 133.83-4.3 139.15-4.3Q141.74-4.3 143.2-5.96 144.67-7.62 144.67-10.4L144.67-10.4Q144.67-13.04 143.15-14.84 141.64-16.65 138.71-16.65L138.71-16.65 133.83-16.65 133.83-20.61 136.17-20.61Q137.25-20.61 138.37-20.65 139.49-20.7 140.47-21.19 141.45-21.68 142.06-22.85 142.67-24.02 142.67-26.22L142.67-26.22Q142.67-27.1 142.42-28.05 142.18-29 141.45-29.79 140.71-30.57 139.35-31.05 137.98-31.54 135.73-31.54L135.73-31.54 133.83-31.54 133.83-35.99 136.32-35.99Q138.61-35.99 140.76-35.45 142.91-34.91 144.57-33.74 146.23-32.57 147.21-30.69 148.18-28.81 148.18-26.22L148.18-26.22Q148.18-24.71 147.7-23.46 147.21-22.22 146.47-21.29 145.74-20.36 144.79-19.75 143.84-19.14 142.96-18.95ZM125.97 0L125.97-35.99 131.83-35.99 131.83 0 125.97 0ZM158.24-27.54L163.51-27.54 164.15-24.71 164.15-9.77 164.15-9.67 164.15 0 158.24 0 158.24-27.54ZM166.15-21.34L166.15-26.32Q167.37-27 169.08-27.37 170.79-27.73 173.72-27.73L173.72-27.73 173.72-21.58Q172.35-21.97 170.4-22.02L170.4-22.02Q169.32-22.02 168.22-21.85 167.13-21.68 166.15-21.34L166.15-21.34ZM185.92-27.54L185.92 0 179.97 0 179.97-27.54 185.92-27.54ZM186.46-36.33L186.46-36.33Q186.46-34.86 185.43-33.86 184.41-32.86 182.94-32.86L182.94-32.86Q181.48-32.86 180.48-33.89 179.48-34.91 179.48-36.33L179.48-36.33Q179.48-37.79 180.5-38.82 181.53-39.84 182.94-39.84L182.94-39.84Q184.41-39.84 185.43-38.82 186.46-37.79 186.46-36.33ZM211.21-37.94L217.17-37.94 217.17 0 211.55 0 211.21-3.27 211.21-37.94ZM192.46-14.16L192.46-14.16Q192.46-17.97 193.51-20.56 194.56-23.14 196.22-24.76 197.88-26.37 199.91-27.08 201.94-27.78 203.89-27.78L203.89-27.78Q205.4-27.78 206.77-27.44 208.14-27.1 209.21-26.46L209.21-26.46 209.21-21.29Q208.38-22.17 207.36-22.71 206.33-23.24 205.06-23.24L205.06-23.24Q203.55-23.24 202.38-22.49 201.2-21.73 200.4-20.41 199.59-19.09 199.15-17.38 198.71-15.67 198.71-13.72L198.71-13.72Q198.71-11.77 199.2-10.08 199.69-8.4 200.52-7.13 201.35-5.86 202.55-5.13 203.74-4.39 205.16-4.39L205.16-4.39Q207.55-4.39 209.21-6.3L209.21-6.3 209.21-1.22Q208.04-0.59 206.5-0.17 204.96 0.24 203.25 0.24L203.25 0.24Q201.3 0.24 199.42-0.46 197.54-1.17 196.08-2.78L196.08-2.78Q194.22-4.88 193.34-7.98 192.46-11.08 192.46-14.16ZM235.53 0.24L235.53 0.24Q232.79 0.24 230.74-0.95 228.69-2.15 227.32-4.15 225.96-6.15 225.32-8.74 224.69-11.33 224.69-14.16L224.69-14.16Q224.69-17.97 225.74-20.56 226.79-23.14 228.42-24.78 230.06-26.42 232.08-27.1 234.11-27.78 236.06-27.78L236.06-27.78Q237.58-27.78 238.94-27.44 240.31-27.1 241.44-26.46L241.44-26.46 241.44-21.29Q240.65-22.17 239.6-22.71 238.55-23.24 237.33-23.24L237.33-23.24Q235.87-23.24 234.67-22.49 233.48-21.73 232.65-20.46 231.82-19.19 231.38-17.48 230.94-15.77 230.94-13.87L230.94-13.87Q230.94-11.91 231.4-10.18 231.86-8.45 232.72-7.18 233.57-5.91 234.77-5.15 235.97-4.39 237.43-4.39L237.43-4.39Q238.65-4.39 239.63-4.91 240.61-5.42 241.44-6.25L241.44-6.25 241.44-1.17Q240.26-0.59 238.75-0.17 237.24 0.24 235.53 0.24ZM244.07-27.54L249.35-27.54 249.3 0Q249.1 2.98 248.1 5.08 247.1 7.18 245.54 8.54 243.97 9.91 241.92 10.5 239.87 11.08 237.53 11.08L237.53 11.08Q234.79 11.08 232.13 10.13 229.47 9.18 227.71 6.93L227.71 6.93 231.13 3.56Q231.62 4.39 232.38 4.93 233.13 5.47 233.94 5.76 234.75 6.05 235.55 6.18 236.36 6.3 236.99 6.3L236.99 6.3Q240.02 6.3 241.73 4.54 243.44 2.78 243.44-1.46L243.44-1.46 243.44-24.76 244.07-27.54ZM271.66-23.19L271.66-27.78Q274.29-27.54 276.42-26.37 278.54-25.2 280.06-23.34 281.57-21.48 282.37-19.09 283.18-16.7 283.18-14.11L283.18-14.11Q283.18-12.94 283.03-11.77L283.03-11.77 266.29-11.77 266.29-16.06 277.57-16.06Q277.57-17.33 277.15-18.51 276.74-19.68 275.93-20.68 275.12-21.68 274.05-22.36 272.98-23.05 271.66-23.19L271.66-23.19ZM271.46-4.59L271.46-4.59Q272-4.59 272.8-4.71 273.61-4.83 274.51-5.15 275.42-5.47 276.32-5.96 277.22-6.45 277.91-7.13L277.91-7.13 280.06-3.86Q278.44-1.86 276.3-0.83 274.15 0.2 270.83 0.2L270.83 0.2Q268.14 0.2 265.8-0.9 263.45-2 261.79-3.91 260.13-5.81 259.16-8.35 258.18-10.89 258.18-13.82L258.18-13.82Q258.18-16.6 259.08-19.09 259.99-21.58 261.55-23.46 263.11-25.34 265.19-26.51 267.26-27.69 269.66-27.83L269.66-27.83 269.66-23.14Q267.85-22.8 266.68-21.68 265.5-20.56 264.85-19.12 264.19-17.68 263.92-16.16 263.65-14.65 263.65-13.57L263.65-13.57Q263.65-11.67 264.11-10.03 264.58-8.4 265.55-7.2 266.53-6.01 267.97-5.3 269.41-4.59 271.46-4.59Z" opacity="1" transform="matrix(1,0,0,1,0,0)" fill="black" class="wordmark-text-0" id="SvgjsPath3560"></path></svg></g></svg></g></svg></g></svg></g><g></g></svg></g></svg></g></svg></g><g><path d="M80.054 90.707A122.216 122.216 0 0 1 315.466 90.707L311.436 90.707A118.186 118.186 0 0 0 84.084 90.707L80.054 90.707M80.054 156.493A122.216 122.216 0 0 0 315.466 156.493L311.436 156.493A118.186 118.186 0 0 1 84.084 156.493L80.054 156.493" fill="black" stroke="transparent"></path></g></svg></g><defs><mask></mask></defs></svg><rect width="395.52" height="247.2" fill="black" stroke="none" visibility="hidden"></rect></g></mask></svg><rect width="395.52" height="247.2" fill="black" stroke="none" visibility="hidden"></rect></g></mask><linearGradient x1="0" x2="1" y1="0.548" y2="0.55" id="90bfc818-7d7a-407e-a374-0b4b5a391bbf"><stop stop-color="#ff6cab" offset="0"></stop><stop stop-color="#7366ff" offset="1"></stop></linearGradient></svg><rect width="395.52" height="247.2" fill="none" stroke="none" visibility="hidden"></rect></g></svg></g></svg>